PathFileType	4	(X/Y/Z)	regression/subject18/trials/walk2/markers.trc
DataRate	CameraRate	NumFrames	NumMarkers	Units	OrigDataRate	OrigDataStartFrame	OrigNumFrames
200.00000000000426	200.00000000000426	4	64	m	200.00000000000426	53	215
Frame#	Time	CLAV			C7			RACR			RASH			RPSH			RLEL			RMEL			RUA1			RUA2			RUA3			RFAsuperior			RFAradius			RFAulna			RASI			RPSI			RCAL			RTOE			RMT5			RTH1			RTH2			RTH3			RTB1			RTB2			RTB3			RLFC			RMFC			RLMAL			RMMAL			RHJC			RKJC			REJC			RAJC			RSJC			LACR			LASH			LPSH			LLEL			LMEL			LUA1			LUA2			LUA3			LFAsuperior			LFAradius			LFAulna			LASI			LPSI			LCAL			LTOE			LMT5			LTH1			LTH2			LTH3			LTB1			LTB2			LTB3			LLFC			LMFC			LLMAL			LMMAL			LHJC			LKJC			LEJC			LAJC			LSJC			
		X1	Y1	Z1	X2	Y2	Z2	X3	Y3	Z3	X4	Y4	Z4	X5	Y5	Z5	X6	Y6	Z6	X7	Y7	Z7	X8	Y8	Z8	X9	Y9	Z9	X10	Y10	Z10	X11	Y11	Z11	X12	Y12	Z12	X13	Y13	Z13	X14	Y14	Z14	X15	Y15	Z15	X16	Y16	Z16	X17	Y17	Z17	X18	Y18	Z18	X19	Y19	Z19	X20	Y20	Z20	X21	Y21	Z21	X22	Y22	Z22	X23	Y23	Z23	X24	Y24	Z24	X25	Y25	Z25	X26	Y26	Z26	X27	Y27	Z27	X28	Y28	Z28	X29	Y29	Z29	X30	Y30	Z30	X31	Y31	Z31	X32	Y32	Z32	X33	Y33	Z33	X34	Y34	Z34	X35	Y35	Z35	X36	Y36	Z36	X37	Y37	Z37	X38	Y38	Z38	X39	Y39	Z39	X40	Y40	Z40	X41	Y41	Z41	X42	Y42	Z42	X43	Y43	Z43	X44	Y44	Z44	X45	Y45	Z45	X46	Y46	Z46	X47	Y47	Z47	X48	Y48	Z48	X49	Y49	Z49	X50	Y50	Z50	X51	Y51	Z51	X52	Y52	Z52	X53	Y53	Z53	X54	Y54	Z54	X55	Y55	Z55	X56	Y56	Z56	X57	Y57	Z57	X58	Y58	Z58	X59	Y59	Z59	X60	Y60	Z60	X61	Y61	Z61	X62	Y62	Z62	X63	Y63	Z63	X64	Y64	Z64	

54	2.705	1.128381357456316	1.445971340729007	-0.4692703368952096	1.017589934473906	1.521560090270377	-0.4754599104868103	1.088131484660292	1.495491649059099	-0.3476212924356957	1.127180461462933	1.435789695334531	-0.3074137635080553	1.030175829896733	1.456079769796389	-0.3129441114761244	0.9863020326088399	1.184998520126755	-0.2082107417170816	0.9760852027610053	1.163294369957886	-0.287054999908459	1.062015483920342	1.402646871008703	-0.2803400819057765	1.004815687863955	1.260732493906022	-0.2463262711338487	1.056807849706737	1.317552425918115	-0.2589025945184936	1.018094491123163	1.099445017065347	-0.2319515927078964	1.069562758937525	0.9573849507238752	-0.1967801672881889	1.009537968480702	0.938252133747282	-0.2060549904754417	1.122020186462338	1.033522857062332	-0.3455606826019049	0.9639670494678725	1.063696318258381	-0.4270639660417308	0.9540490782295052	0.04368108430766615	-0.391682609083087	1.201222022424087	0.05102446640697344	-0.4592125133792063	1.15106422121187	0.01243250401618156	-0.3611317877116209	1.104182097967057	0.7857640825107436	-0.330728547442163	1.18234517666598	0.7140458335539259	-0.4051792958550918	1.122592674542657	0.626011022797742	-0.3376841052962852	1.098251733255678	0.3375083704896356	-0.3628382561573448	1.113733471052465	0.2491674679732368	-0.4198796591508382	1.081604035818879	0.1804262321358414	-0.3597509242582225	1.1296200936057	0.5144002446488597	-0.3501322253715505	1.119281668220572	0.5149194680808706	-0.4619783286044919	1.042479924836917	0.08021525625632869	-0.3586303547642131	1.038940271231952	0.08092382935667869	-0.4452548023289729	1.049607435686442	0.9406964128869105	-0.3971593788894585	1.127365165982982	0.5125481639228293	-0.4088834320451837	0.9839728797352896	1.168097226105782	-0.2524372255811155	1.025721578132664	0.07068462010502313	-0.4067923406755659	1.081738641805746	1.445294580716188	-0.3100044550136973	1.102330755883238	1.496088752468191	-0.5944917983679227	1.145748739216016	1.436570522869497	-0.6302444251117367	1.040983737124519	1.458483803288304	-0.6362172009172514	1.073425209984273	1.172259165832387	-0.7401951868395534	1.053623359434836	1.149276631036882	-0.6635690845103698	1.094235878461572	1.400412506955494	-0.6639131963104795	1.070798957944351	1.250232075147834	-0.7021884504480629	1.108505542000302	1.315768433341565	-0.6828738769256033	1.114655377508412	1.093605339818841	-0.707189242351874	1.196619887841933	0.963439930284675	-0.7273351951314557	1.140314355891024	0.9339869507189782	-0.731491102544741	1.111039182592388	1.034985412812167	-0.616239482360504	0.9601204840943223	1.064208640844806	-0.5218807706651035	0.7583862891307033	0.292917935614136	-0.5910528951917309	0.9007833149863412	0.09130106519206636	-0.5218979809383201	0.8436629862327193	0.1125605290589633	-0.6214483529630743	1.11274474742275	0.7984348575426788	-0.6376809989435157	1.205646384012141	0.735573561275191	-0.572768508658862	1.15328214290021	0.6426778794371245	-0.6398838475320047	1.04618652007368	0.4077912609008713	-0.6201880022026466	1.002704392381165	0.3286858606683729	-0.564070615026527	0.9326811133067501	0.2979393875622504	-0.6234382632186958	1.17644638062594	0.5327546130629118	-0.6334340637135611	1.175079155833838	0.5275719048039913	-0.5212379244204429	0.8384157347455753	0.246092146890491	-0.6237439792424394	0.8380504593888	0.2468157770370808	-0.5370481369389807	1.043003310336209	0.9415760138430712	-0.5599492972272757	1.181706241485413	0.5224107350458963	-0.5743245011582573	1.066471043514402	1.155355917643602	-0.6964575561647549	0.8205029918070104	0.2483472771258391	-0.5751096279599109	1.100306919558829	1.446075408251154	-0.6328351166173787	
55	2.71	1.134370996396426	1.446560568888029	-0.4694091836402542	1.023674357329555	1.522314014835226	-0.475272528365351	1.094579197298505	1.496177678703001	-0.3476489341608938	1.133664919385099	1.436429069842101	-0.3075465487145448	1.036673947034455	1.456863366837122	-0.3127773425745568	0.9939035902131094	1.185627579536841	-0.2073704958739036	0.9834468784315575	1.163752155614642	-0.2861359312080818	1.068737811874894	1.403353312380472	-0.2801806434713773	1.012061828454165	1.261343178587897	-0.2456929467655837	1.063847910628444	1.318283837550577	-0.2585699233810248	1.026349893020188	1.100337754460163	-0.2311644476999906	1.079321278807537	0.9587887605016712	-0.1961646076444294	1.019458620227918	0.9390675018684805	-0.2052528729191004	1.12740468267312	1.034033332032299	-0.3453250307684234	0.9694134615471226	1.064264398430669	-0.4269269532785393	0.9542694313623552	0.04425390356020463	-0.391750448901284	1.20153218395204	0.05090063973584676	-0.4590232491752505	1.151157295532998	0.01237972564105779	-0.3610258863272244	1.108393902230156	0.7859132172834067	-0.3307434894651965	1.186020702354785	0.7135354332941346	-0.4051170353776002	1.125495392881668	0.6260123761131018	-0.3376448815783216	1.099507783974889	0.3376050493233354	-0.3627696712361647	1.114743108940118	0.2491950823793053	-0.4197704040055406	1.082258317658873	0.1805879089196374	-0.3596794982214118	1.131614147034569	0.5143443749634384	-0.3500595695707763	1.121364697406074	0.5149197279615032	-0.4619135868971583	1.042751879690011	0.08052657035792765	-0.3586018586270169	1.039350865759035	0.081232094740608	-0.4452318850553186	1.055145263911987	0.9412719340490466	-0.397254599573256	1.129358539017625	0.512524155625411	-0.4088013792938304	0.9914529532509112	1.168639651161678	-0.2515572046862515	1.02603301661642	0.07105052443923698	-0.4067883325373091	1.08822949838744	1.446001516269419	-0.3099969140982675	1.108001229698775	1.496679713094373	-0.5945631288575406	1.151216807908529	1.437085576353896	-0.6304343417793905	1.046466557769834	1.459154617108518	-0.6360835991482034	1.077590238067493	1.172876691736831	-0.7399976732248893	1.057910638952905	1.150015942859949	-0.6633036754907212	1.099456308329928	1.400998619942395	-0.6639172295468956	1.075357113997556	1.25088258254884	-0.7020335065207778	1.113359487720705	1.316290172343539	-0.6828626884507381	1.118135859123183	1.093765487158085	-0.7072461298933298	1.198611504766883	0.9627619570249676	-0.7279540935232729	1.141975042420975	0.9339375421402287	-0.7320194027972364	1.116729427437663	1.036210237834458	-0.616011259012225	0.9656739976849081	1.065026952617812	-0.5217463600459689	0.7735433489264305	0.2885979089968915	-0.5894844684418401	0.9213755587446879	0.09081975895184717	-0.520650474792422	0.8635731606870189	0.1106050961198406	-0.62011100235501	1.120555081824023	0.8003260393116197	-0.6375047821747314	1.21440224579455	0.738987797138697	-0.5724954143405785	1.163398316471678	0.6451833387933361	-0.6393939416158883	1.059946755172927	0.4086302942858931	-0.6191704943683256	1.017753715333769	0.3289559588661121	-0.562874237098114	0.9482130635106463	0.2969693924982151	-0.6221539148019903	1.188193307964438	0.5356297800313842	-0.6327206912414221	1.18694295461556	0.530665222086861	-0.5205133241850277	0.8547894845687798	0.2436196142734413	-0.6223196975043395	0.85443960699648	0.2445175396264033	-0.5356254217121834	1.04872501995655	0.9425811548601279	-0.5600489855032917	1.193628873238402	0.5254990907380577	-0.5735913851383787	1.070691721319292	1.156026795906885	-0.6962306531656923	0.8368580521338849	0.2456888771899055	-0.5736839701174768	1.10578138691087	1.446658022781213	-0.6328847071631132	
56	2.715	1.140352642978313	1.44712287521431	-0.469560960188082	1.029753250117144	1.523042393097622	-0.4751026556008131	1.101014835406668	1.496835839844677	-0.3476923372442234	1.140134446111887	1.437039742114811	-0.3076939122141897	1.043158761933639	1.457619576707981	-0.3126292442079414	1.001520347940665	1.186216972322133	-0.2065681298618329	0.9908323179505892	1.164171839397482	-0.2852551613581774	1.075449973310522	1.404028869727657	-0.2800416686936126	1.019315421855197	1.261916741419221	-0.2450916824115173	1.070887645716877	1.318984039563672	-0.2582629650093979	1.034624277457945	1.101200292062382	-0.230423383362604	1.089101028671877	0.9601780232168662	-0.1956084803231522	1.029407543624129	0.9398675128202703	-0.2045098010276366	1.132789035231745	1.034525339008199	-0.345112864478325	0.9748537444558036	1.064810129359131	-0.4268030871903007	0.9544887300492498	0.04482901823653831	-0.3918224829015867	1.201837985256928	0.05077794773575139	-0.458842134965273	1.15124852444944	0.01233884189328582	-0.3609232147897727	1.112594683955482	0.7860503249874148	-0.3307770593313222	1.189666488270578	0.7130108725655233	-0.4050809180056671	1.128373370386796	0.6260112401632393	-0.3376249484744484	1.100740739777544	0.3377077751682306	-0.3627154553885615	1.115732958979638	0.2492299667520391	-0.4196753684797044	1.082903530364245	0.1807564334762625	-0.3596193385560906	1.133573458323837	0.5142929636086064	-0.3500060582875653	1.123401635755028	0.5149230864174217	-0.4618668664899221	1.043024109909254	0.08084274872867719	-0.3585806628712426	1.039755567464994	0.08154286752907985	-0.4452158324234336	1.060679998472255	0.9418274936046174	-0.3973639596526106	1.131309986916968	0.5125052157156639	-0.4087377910554935	0.9989535771768321	1.169143744890542	-0.2507153512985495	1.026342393653538	0.07141883603739901	-0.4067902294424616	1.094706186858587	1.446680365629982	-0.3100058684866627	1.113669891475713	1.497245390475277	-0.5946472002438168	1.156683365586792	1.437575308324057	-0.6306348869059656	1.051949626674284	1.45980152968468	-0.6359650454592174	1.081707005883521	1.173483643410001	-0.7398191484365908	1.062164908895833	1.150741462733596	-0.6630547725036303	1.104665206185337	1.401563459839231	-0.6639344237306434	1.079882411803436	1.251518923023093	-0.7018935661711344	1.118189822057563	1.316791906370889	-0.6828716461492119	1.121568465627957	1.093922221559586	-0.7073305651682676	1.200538863709267	0.9620973138188254	-0.7286130493472229	1.143577569676248	0.9339048086296308	-0.7325698325408317	1.122399324368645	1.037405740860568	-0.6158036314937869	0.9712143046996112	1.065819113069405	-0.5216240838562599	0.7888726408160334	0.2839959070421841	-0.5879116913698791	0.9421370641194682	0.09028143282927034	-0.519403322489885	0.88367693345524	0.1085404325194427	-0.618771302162073	1.128280391583633	0.8021930321730204	-0.6373443001265302	1.223033534468653	0.74235989640998	-0.5722464827856711	1.173364404310287	0.6476831042751001	-0.6389201110340614	1.073651326683817	0.4094051826898532	-0.6181624698384357	1.032829293886694	0.3291460651820688	-0.561686310148982	0.9638184782670303	0.2958672144869107	-0.6208737099616636	1.199745711123366	0.5385145919612239	-0.6320231058068553	1.198615343415562	0.533774025952088	-0.5198047795692563	0.8713092371915514	0.2409469876709732	-0.6208943247378985	0.8709739780580805	0.2420179435354111	-0.5342019560182047	1.054431484793068	0.9435598065258566	-0.5601610752617664	1.205356118921352	0.5286089608905062	-0.5728746520813206	1.074872404554537	1.156684915523319	-0.6960224415543323	0.8533620952775043	0.2428135659065997	-0.5722561907333831	1.111255106333491	1.447215931839227	-0.6329468431784385	
57	2.72	1.146327408851528	1.447655092228333	-0.4697253805139905	1.035827468379655	1.52374172216953	-0.4749500513021923	1.107439308371309	1.49746286258353	-0.3477511829622104	1.146590123065765	1.437618567942339	-0.3078555020181587	1.049631264658096	1.458344963250073	-0.3124995013117847	1.009151573226537	1.186764240557587	-0.2058033092529384	0.9982403093383971	1.164551140553864	-0.2844124264406346	1.082152767493596	1.404670414405599	-0.2799227945566689	1.026576221640753	1.262450564244288	-0.2445221138891528	1.077927221253644	1.319649987181319	-0.2579814723897492	1.042916055375343	1.102030022790619	-0.2297286710500957	1.098899899585257	0.9615501211063812	-0.1951124809495797	1.039382366368399	0.9406499936756897	-0.2038251391639821	1.138175912441559	1.034996541132562	-0.3449237174631332	0.9802900649720736	1.065330947924298	-0.4266910704791694	0.9547056204508517	0.04540237895594749	-0.3918983960108474	1.202137809563514	0.05065727228418538	-0.4586694635756405	1.151337391440351	0.01230994194025806	-0.3608238039626447	1.116785887454364	0.7861723631788773	-0.3308280245816889	1.193282340715662	0.712469070474072	-0.405070905232181	1.131226854489653	0.6260048020543354	-0.3376236141128353	1.101949475616718	0.3378139732417792	-0.3626753621882107	1.116701199745746	0.2492697052501506	-0.4195947803083406	1.083538474438948	0.1809290776753534	-0.3595704923444104	1.135497345148976	0.5142434328332686	-0.3499713009591995	1.125390291239388	0.514927554547483	-0.4618376626572489	1.043295320794595	0.08116098482064427	-0.3585666717751841	1.040152064235453	0.08185372526450402	-0.4452065366657894	1.066213307565677	0.9423604151748729	-0.3974852275136331	1.133217983305693	0.5124891221032895	-0.4086922315945297	1.006473709073344	1.169607126595071	-0.2499113929986839	1.026647823681299	0.07178696062471368	-0.4067977883584727	1.101169745844693	1.447327847824247	-0.3100309834872578	1.119337744344682	1.497782516793927	-0.5947437892838388	1.162149616261714	1.438036577294397	-0.6308458333618266	1.057434049181432	1.46042108422675	-0.6358613525989427	1.085779470178271	1.174076636477804	-0.7396581520389718	1.066391057843817	1.151449549127816	-0.662820829505085	1.109864104521674	1.402103713113855	-0.6639643228548969	1.084378097772017	1.252137606929069	-0.7017674560093381	1.122998984138829	1.317270579511587	-0.6829001166201474	1.12495887151156	1.094073025802072	-0.7074409737371231	1.202409765211933	0.9614450489215671	-0.7293099705226667	1.145130371815255	0.933886554801031	-0.7331391994159306	1.128049399683365	1.038566038649086	-0.615616248909619	0.9767428215877889	1.066581316807748	-0.5215126852124166	0.8043809213210908	0.2791292666242057	-0.5863447624360444	0.9630493684537226	0.08969657845691725	-0.5181666272682978	0.9039610132551311	0.1063817552267339	-0.617439707643502	1.135920835402569	0.8040287483678824	-0.6371988975383945	1.23154021170364	0.7456793169102424	-0.5720209352448727	1.183178830026832	0.6501669560393599	-0.6384638118128311	1.087297462750247	0.4101134961561652	-0.6171698157340008	1.047926576608695	0.3292579747333713	-0.5605143755895312	0.9794949845003165	0.2946398362048431	-0.6196060379371091	1.211100611458285	0.5413965871741029	-0.6313443251947533	1.210091985568079	0.5368841368128725	-0.5191154345009527	0.8879745466614971	0.2380873439648486	-0.6194775775142228	0.8876525435730154	0.2393285948574861	-0.5327874295756363	1.060123084813014	0.9445071596178815	-0.560283404275648	1.216883748806112	0.5317266794257219	-0.5721775097902398	1.079017618116344	1.157326804929566	-0.6958314356725175	0.8700151845155006	0.239734243768177	-0.5708360198810568	1.116729239040642	1.447745857176305	-0.6330213148309257	
